<svg xmlns="http://www.w3.org/2000/svg" version="1.1" xmlnsXlink="http://www.w3.org/1999/xlink" xmlnsSvgjs="http://svgjs.com/svgjs" width="512" height="512" x="0" y="0" viewBox="0 0 24 24" style="enable-background:new 0 0 512 512" xml:space="preserve" class=""><g><g data-name="Layer 2"><path d="M19.38 7.82c-2.76-2.43-12-2.43-14.76 0C3.29 9 2.5 11.3 2.5 14s.79 5 2.12 6.18S9 22 12 22s6-.6 7.38-1.82C20.71 19 21.5 16.7 21.5 14s-.79-5-2.12-6.18zm-4.74 6.91-3.87 1.93a.81.81 0 0 1-1.17-.72v-3.88a.81.81 0 0 1 1.17-.72l3.87 1.93a.82.82 0 0 1 0 1.46z" fill="#000000" data-original="#000000" class=""></path><path d="M12 8a1 1 0 0 1-.71-.29l-4-4a1 1 0 1 1 1.42-1.42L12 5.59l3.29-3.3a1 1 0 1 1 1.42 1.42l-4 4A1 1 0 0 1 12 8z" fill="#000000" data-original="#000000" class=""></path></g></g></svg>